<svg xmlns="http://www.w3.org/2000/svg" xmlns:xlink="http://www.w3.org/1999/xlink" width="500" zoomAndPan="magnify" viewBox="0 0 375 374.999991" height="500" preserveAspectRatio="xMidYMid meet" version="1.0"><defs><clipPath id="d5a7b2e09b"><path d="M 32 32 L 338 32 L 338 337 L 32 337 Z M 32 32 " clip-rule="nonzero"/></clipPath><clipPath id="b5a40fab3e"><path d="M 119.261719 -20.15625 L 395.050781 119.207031 L 255.683594 394.996094 L -20.101562 255.632812 Z M 119.261719 -20.15625 " clip-rule="nonzero"/></clipPath><clipPath id="ee5dab4128"><path d="M 119.261719 -20.15625 L 395.050781 119.207031 L 255.683594 394.996094 L -20.101562 255.632812 Z M 119.261719 -20.15625 " clip-rule="nonzero"/></clipPath><clipPath id="10bc6c8c6d"><path d="M 174 154 L 343 154 L 343 342 L 174 342 Z M 174 154 " clip-rule="nonzero"/></clipPath><clipPath id="90256020ca"><path d="M 119.261719 -20.15625 L 395.050781 119.207031 L 255.683594 394.996094 L -20.101562 255.632812 Z M 119.261719 -20.15625 " clip-rule="nonzero"/></clipPath><clipPath id="99cf88cee9"><path d="M 119.261719 -20.15625 L 395.050781 119.207031 L 255.683594 394.996094 L -20.101562 255.632812 Z M 119.261719 -20.15625 " clip-rule="nonzero"/></clipPath></defs><g clip-path="url(#d5a7b2e09b)"><g clip-path="url(#b5a40fab3e)"><g clip-path="url(#ee5dab4128)"><path fill="#000000" d="M 86.6875 230.105469 C 93.921875 181.886719 150.121094 165.535156 172.109375 169.488281 C 172.109375 169.488281 110.308594 158.421875 69.945312 189.566406 C 95.640625 153.453125 141.230469 137.605469 176.554688 138.109375 C 176.554688 138.109375 148.160156 127.71875 88.792969 149.992188 C 123.964844 118.925781 148.898438 114.921875 148.898438 114.921875 C 136.734375 73.265625 156.992188 39.972656 156.992188 39.972656 C 161.449219 67.425781 187.742188 90.15625 205.214844 96.417969 C 219.308594 101.453125 258.980469 103.222656 268.207031 124.789062 C 265.542969 123.753906 262.535156 122.8125 259.296875 122.0625 C 247.390625 119.3125 236.179688 123.820312 236.179688 123.820312 C 236.179688 123.820312 244.8125 131.054688 256.175781 135.542969 C 267.648438 140.082031 278.113281 137.585938 279.226562 133.941406 C 296.804688 140.960938 332.40625 144.199219 337.828125 151.910156 C 327.699219 109.117188 299.476562 70.917969 257.152344 49.53125 C 180.992188 11.042969 88.050781 41.585938 49.5625 117.746094 C 11.078125 193.910156 41.617188 286.851562 117.78125 325.335938 C 127.246094 330.121094 136.976562 333.835938 146.824219 336.53125 C 127.480469 299.566406 81.144531 267.023438 86.6875 230.105469 " fill-opacity="1" fill-rule="nonzero"/></g></g></g><g clip-path="url(#10bc6c8c6d)"><g clip-path="url(#90256020ca)"><g clip-path="url(#99cf88cee9)"><path fill="#000000" d="M 338.460938 154.660156 C 333.050781 182.25 305.84375 194.230469 305.84375 194.230469 C 305.84375 194.230469 276.960938 189.957031 248.894531 200.386719 C 193.03125 221.144531 180.84375 287.003906 176.144531 331.148438 C 175.753906 334.828125 175.132812 338.246094 174.355469 341.417969 C 235.300781 346.585938 296.089844 315.058594 325.371094 257.121094 C 342.011719 224.183594 345.738281 188.113281 338.460938 154.660156 " fill-opacity="1" fill-rule="nonzero"/></g></g></g></svg>